<?xml version="1.0" encoding="utf-8"?>
<!-- Generator: Adobe Illustrator 14.0.0, SVG Export Plug-In . SVG Version: 6.00 Build 43363)  -->
<!DOCTYPE svg PUBLIC "-//W3C//DTD SVG 1.1//EN" "http://www.w3.org/Graphics/SVG/1.1/DTD/svg11.dtd">
<svg version="1.1" id="Layer_2" xmlns="http://www.w3.org/2000/svg" xmlns:xlink="http://www.w3.org/1999/xlink" x="0px" y="0px"
	 width="11.729px" height="11.881px" viewBox="273.6 96.3 11.729 11.881" enable-background="new 273.6 96.3 11.729 11.881"
	 xml:space="preserve">
<g>
	<path fill="#B7B7B7" d="M278.5,106.1c-2.7,0-4.9-2.2-4.9-4.9c0-2.7,2.2-4.9,4.9-4.9s4.9,2.2,4.9,4.9
		C283.4,103.9,281.2,106.1,278.5,106.1z M278.5,97.3c-2.2,0-3.9,1.7-3.9,3.9c0,2.2,1.7,3.9,3.9,3.9s3.9-1.7,3.9-3.9
		C282.4,99,280.7,97.3,278.5,97.3z"/>
	
		<rect x="280.721" y="105.667" transform="matrix(0.7176 0.6965 -0.6965 0.7176 153.8969 -167.2879)" fill="#B7B7B7" width="5" height="0.9"/>
</g>
</svg>
